<svg width="70" height="95" viewBox="0 0 70 95" fill="none" xmlns="http://www.w3.org/2000/svg">
<path d="M53.5981 85.2363V94.6383H56.82V85.4217C56.82 84.805 57.0647 84.2136 57.5004 83.7771C57.9361 83.3407 58.5271 83.095 59.1438 83.0939H60.6311V80.0244H58.9831C57.5881 80.0359 56.251 80.5835 55.2485 81.5537C54.2461 82.5239 53.6552 83.8424 53.5981 85.2363Z" fill="#141413"/>
<path d="M65.5297 89.2324V83.0812H69.0894V80.0076H65.5297V77.1235H62.2954V89.4055C62.3524 90.8012 62.9435 92.1217 63.9464 93.094C64.9494 94.0663 66.2876 94.6161 67.6845 94.6297H69.3325V91.5603H67.8451C67.2306 91.5549 66.6429 91.3075 66.2095 90.8717C65.7761 90.436 65.5318 89.847 65.5297 89.2324Z" fill="#141413"/>
<path d="M29.1658 79.7315C28.3774 79.7343 27.5993 79.9112 26.8871 80.2495C26.1749 80.5878 25.5461 81.0791 25.0458 81.6885C24.5454 81.0791 23.9167 80.5878 23.2045 80.2495C22.4923 79.9112 21.7142 79.7343 20.9257 79.7315C19.5726 79.7304 18.2706 80.2479 17.2873 81.1775C16.3041 82.1071 15.7145 83.3781 15.6396 84.7291V94.6379H18.8821V85.1329C18.8728 84.828 18.9246 84.5243 19.0346 84.2398C19.1446 83.9553 19.3105 83.6957 19.5225 83.4764C19.7345 83.2571 19.9884 83.0825 20.269 82.9629C20.5496 82.8434 20.8514 82.7813 21.1564 82.7803C22.207 82.7803 23.4431 83.489 23.4431 85.5119V94.6379H26.6732V85.5037C26.6732 83.629 27.8515 82.7803 28.9475 82.7803C29.2567 82.7687 29.5649 82.8221 29.8523 82.9371C30.1396 83.0521 30.3996 83.226 30.6154 83.4477C30.8313 83.6694 30.9983 83.934 31.1056 84.2242C31.2129 84.5145 31.2581 84.8241 31.2382 85.1329V94.6379H34.4601V84.7497C34.3894 83.394 33.8005 82.1172 32.8152 81.1833C31.8299 80.2494 30.5234 79.7296 29.1658 79.7315Z" fill="#141413"/>
<path d="M43.9365 79.7687C42.9483 79.763 41.9689 79.955 41.0559 80.3332C40.1429 80.7114 39.3147 81.2682 38.62 81.971C37.9253 82.6738 37.378 83.5084 37.0104 84.4257C36.6427 85.3429 36.4621 86.3245 36.4791 87.3125C36.4791 91.7375 39.6433 94.9429 43.9983 94.9429C44.7706 94.9669 45.5394 94.8298 46.2558 94.5404C46.9722 94.251 47.6206 93.8156 48.1595 93.2619V94.638H51.3855V87.3743C51.3855 82.9576 48.2461 79.7687 43.9365 79.7687ZM43.9777 91.8446C43.0872 91.8675 42.2102 91.6246 41.4583 91.147C40.7065 90.6693 40.1141 89.9784 39.7566 89.1626C39.3991 88.3468 39.2928 87.4429 39.4511 86.5664C39.6095 85.6898 40.0254 84.8804 40.6459 84.2412C41.2663 83.6021 42.063 83.1623 42.9344 82.9779C43.8059 82.7935 44.7125 82.8729 45.5386 83.206C46.3647 83.5391 47.0729 84.1108 47.5727 84.848C48.0725 85.5853 48.3414 86.4548 48.3449 87.3455C48.3449 89.9906 46.5568 91.8446 43.9777 91.8446Z" fill="#141413"/>
<path d="M8.10418 85.8955C4.97704 85.5329 4.35079 84.9726 4.35079 84.1197C4.35079 82.7683 6.41083 82.5953 7.29664 82.5953C8.82249 82.6065 10.2962 83.1517 11.462 84.1362L13.5221 82.0762C12.6981 81.3963 10.7287 79.7524 6.81872 79.7524C2.90877 79.7524 0.881695 82.0926 0.881695 84.3051C0.881695 86.9214 2.91289 88.4252 7.09476 88.866C8.84991 89.0556 10.1807 89.3028 10.1807 90.5141C10.1807 92.7719 4.52384 92.5453 2.2578 90.0361L0 92.2898C1.85572 93.9875 4.2748 94.9373 6.78988 94.9555C11.4991 94.9555 13.6416 92.6483 13.6416 90.4893C13.658 87.7989 11.8946 86.3322 8.10418 85.8955Z" fill="#141413"/>
<path d="M49.8735 60.2355C59.8152 54.0554 70 36.4627 70 32.5034C70 28.544 59.8152 10.9636 49.8735 4.77116C49.7725 4.69727 49.6533 4.65216 49.5286 4.64064C49.404 4.62911 49.2786 4.6516 49.1657 4.70571C49.0528 4.75982 48.9567 4.84353 48.8876 4.94792C48.8186 5.05232 48.7791 5.17349 48.7734 5.29853V32.491V59.6835C48.7747 59.8106 48.811 59.935 48.8784 60.0428C48.9457 60.1507 49.0414 60.238 49.1551 60.295C49.2687 60.352 49.3959 60.3767 49.5226 60.3662C49.6494 60.3557 49.7708 60.3105 49.8735 60.2355Z" fill="#141413"/>
<path d="M31.6794 64.9777C31.9555 64.9777 32.2356 64.9777 32.5034 64.9777C36.5309 64.9905 40.5245 64.2426 44.2745 62.7734C44.4943 62.6931 44.6837 62.5466 44.8166 62.3539C44.9495 62.1613 45.0192 61.9321 45.0161 61.6981V45.4897C45.0142 45.3948 44.9901 45.3017 44.9458 45.2177C44.9016 45.1337 44.8383 45.0612 44.7611 45.006C44.6839 44.9508 44.5948 44.9144 44.501 44.8996C44.4073 44.8849 44.3113 44.8923 44.2209 44.9212C40.7188 46.3467 37.7689 47.7063 32.6847 47.7063C28.6526 47.7063 24.7856 46.1046 21.9345 43.2534C19.0834 40.4023 17.4816 36.5354 17.4816 32.5033C17.4816 28.4712 19.0834 24.6042 21.9345 21.7531C24.7856 18.9019 28.6526 17.3002 32.6847 17.3002C37.7689 17.3002 40.7188 18.6598 44.2209 20.0812C44.311 20.111 44.4069 20.1191 44.5007 20.1049C44.5945 20.0908 44.6837 20.0548 44.7611 19.9999C44.8385 19.945 44.9019 19.8727 44.9461 19.7887C44.9904 19.7048 45.0144 19.6117 45.0161 19.5168V3.29608C45.0183 3.06278 44.9482 2.83451 44.8154 2.64269C44.6826 2.45086 44.4936 2.30489 44.2745 2.22486C40.5298 0.750138 36.5404 -0.0046825 32.5158 2.18546e-05C32.2356 2.18546e-05 31.9555 2.18546e-05 31.6918 2.18546e-05C23.2357 0.21708 15.1991 3.72916 9.29561 9.78731C3.39217 15.8455 0.0891101 23.9703 0.090821 32.4291V32.5486C0.0900739 41.005 3.39177 49.1274 9.29236 55.185C15.1929 61.2426 23.2259 64.7564 31.6794 64.9777Z" fill="#141413"/>
</svg>
